<svg width="130" height="95" viewBox="0 0 130 95" fill="none" xmlns="http://www.w3.org/2000/svg">
<g filter="url(#filter0_d)">
<path d="M48.1012 73.0135C41.889 66.1247 37.1469 57.4894 33.8748 47.1074L14.7998 53.1193L17.0542 60.2724C18.2754 64.147 21.8906 67.4309 27.9 70.1241C33.9093 72.8173 40.6431 73.7804 48.1012 73.0135ZM121.967 27.207L119.713 20.0539L100.637 26.0658C103.91 36.4478 104.976 46.2417 103.836 55.4475C110.386 51.7995 115.351 47.1494 118.73 41.4972C122.109 35.845 123.188 31.0817 121.967 27.207ZM128.499 14.6636L131.504 24.2011C132.616 27.728 132.705 31.6046 131.77 35.8309C130.836 40.0572 129.072 44.1628 126.478 48.1476C123.884 52.1325 120.35 55.9084 115.877 59.4753C111.404 63.0421 106.4 65.8343 100.865 67.8518C99.624 71.1918 98.0081 74.295 96.0172 77.1614C94.6619 79.4453 93.9255 81.657 93.8079 83.7964C93.6904 85.9359 94.0309 88.2724 94.8293 90.8058C95.6747 93.4882 97.1446 95.5096 99.239 96.8701C101.333 98.2305 104.045 98.3863 107.373 97.3373C111.098 96.1631 114.77 96.2482 118.389 97.5925C122.007 98.9368 124.356 101.323 125.436 104.75L126.939 109.519C127.159 110.215 127.115 110.856 126.809 111.444C126.503 112.032 126.002 112.436 125.307 112.655L63.3127 132.194C62.6172 132.413 61.9755 132.369 61.3875 132.063C60.7996 131.757 60.396 131.256 60.1768 130.561L58.6738 125.792C57.5936 122.364 58.1503 119.063 60.3439 115.887C62.5375 112.71 65.4971 110.535 69.2227 109.361C72.5509 108.312 74.6829 106.63 75.6187 104.314C76.5545 101.999 76.5997 99.5001 75.7543 96.8177C74.9558 94.2842 73.8951 92.1748 72.572 90.4894C71.249 88.8039 69.3775 87.4142 66.9576 86.3202C63.6829 85.1133 60.5797 83.4974 57.648 81.4725C51.9565 82.9932 46.2557 83.5749 40.5456 83.2175C34.8356 82.8601 29.7755 81.7927 25.3654 80.0153C20.9553 78.2379 17.1559 75.8858 13.9672 72.959C10.7784 70.0321 8.62828 66.8053 7.51671 63.2784L4.51076 53.7408C3.88453 51.7539 4.04767 49.8457 5.00019 48.0165C5.95271 46.1872 7.42247 44.9595 9.40945 44.3332L30.8689 37.5699L28.6144 30.4167C27.5811 27.1382 27.8639 23.9637 29.4628 20.8931C31.0617 17.8226 33.5004 15.7707 36.7789 14.7374L79.6977 1.21066C82.9763 0.177371 86.1508 0.460162 89.2213 2.05904C92.2919 3.65791 94.3438 6.09661 95.3771 9.37513L97.6315 16.5283L119.091 9.7649C121.078 9.13866 122.986 9.30181 124.815 10.2543C126.645 11.2068 127.872 12.6766 128.499 14.6636Z" fill="#D89B00"/>
</g>
<defs>
<filter id="filter0_d" x="0.138155" y="0.602211" width="136.272" height="139.729" filterUnits="userSpaceOnUse" color-interpolation-filters="sRGB">
<feFlood flood-opacity="0" result="BackgroundImageFix"/>
<feColorMatrix in="SourceAlpha" type="matrix" values="0 0 0 0 0 0 0 0 0 0 0 0 0 0 0 0 0 0 127 0" result="hardAlpha"/>
<feOffset dy="4"/>
<feGaussianBlur stdDeviation="2"/>
<feComposite in2="hardAlpha" operator="out"/>
<feColorMatrix type="matrix" values="0 0 0 0 0 0 0 0 0 0 0 0 0 0 0 0 0 0 0.25 0"/>
<feBlend mode="normal" in2="BackgroundImageFix" result="effect1_dropShadow"/>
<feBlend mode="normal" in="SourceGraphic" in2="effect1_dropShadow" result="shape"/>
</filter>
</defs>
</svg>
