<svg width="135" height="101" viewBox="0 0 135 101" fill="none" xmlns="http://www.w3.org/2000/svg">
<g filter="url(#filter0_d)">
<path d="M25.422 93.3322C24.383 96.3074 22.5514 98.2964 19.9271 99.2993C17.3028 100.302 14.4845 100.278 11.4721 99.2256C7.53005 97.8489 4.76035 95.5047 3.16303 92.193L8.05714 88.3944C9.29498 90.7043 10.9738 92.2295 13.0936 92.9698C14.1721 93.3464 15.2053 93.4047 16.1932 93.1447C17.1811 92.8847 17.8569 92.2341 18.2205 91.1928C19.0518 88.8126 17.463 87.0894 13.4542 86.0232L13.0948 82.3928C13.5221 82.1248 14.409 81.527 15.7552 80.5993C17.1014 79.6717 18.2424 78.9436 19.1781 78.4149C20.1137 77.8863 21.0517 77.4107 21.9921 76.9881L22.0116 76.9323C21.4166 76.7245 20.5082 76.4281 19.2866 76.0432C18.0649 75.6583 17.1566 75.3619 16.5616 75.1541L15.529 78.1107L9.61589 76.0456L12.5771 67.5664L31.1533 74.0539L29.4389 78.9629L21.899 83.5273C23.6398 84.636 24.8278 86.0731 25.4629 87.8388C26.098 89.6044 26.0844 91.4356 25.422 93.3322ZM37.7487 58.3944L34.6511 67.2641L14.4572 60.2117C14.7016 58.795 14.9407 57.7519 15.1745 57.0825C15.8369 55.1858 16.8778 53.6091 18.2972 52.3523C19.7167 51.0956 21.2089 50.1981 22.7738 49.6597C24.3387 49.1214 25.8745 48.6668 27.381 48.2958C28.8875 47.9248 30.2205 47.4828 31.3802 46.9699C32.5399 46.4569 33.2691 45.7728 33.5678 44.9174C33.8925 43.9877 33.8729 43.1776 33.509 42.4872C33.1451 41.7968 32.4983 41.2893 31.5685 40.9646C29.8578 40.3672 27.975 40.9197 25.9201 42.6221L22.3278 37.6748C23.8828 36.0899 25.7286 35.0759 27.8652 34.6329C30.0019 34.19 32.1487 34.3451 34.3057 35.0984C37.0205 36.0465 39.0382 37.617 40.3587 39.8097C41.6791 42.0025 41.8783 44.4191 40.9562 47.0596C40.3068 48.919 39.0804 50.3997 37.2769 51.5014C35.4735 52.6032 33.66 53.3155 31.8365 53.6384C30.013 53.9613 28.2812 54.41 26.641 54.9846C25.0008 55.5593 23.9997 56.3049 23.6378 57.2217L30.7224 59.6959L31.8914 56.3488L37.7487 58.3944ZM110.134 103.64L106.394 114.35C106.225 114.834 105.902 115.19 105.425 115.42C104.949 115.65 104.469 115.681 103.985 115.512L36.1514 91.8219C35.6679 91.653 35.3112 91.3303 35.0813 90.8536C34.8514 90.3769 34.8208 89.8968 34.9897 89.4134L38.7302 78.7028C38.912 78.1821 39.2287 77.8129 39.6803 77.5951C40.1319 77.3773 40.618 77.3593 41.1387 77.5411L108.972 101.231C109.456 101.4 109.813 101.723 110.043 102.199C110.272 102.676 110.303 103.156 110.134 103.64ZM49.104 26.059L47.1752 31.5816L28.4875 25.0552L30.4162 19.5326L36.3851 21.6171C36.9176 20.0924 37.7159 17.8363 38.7801 14.8491C39.8442 11.8618 40.6425 9.6058 41.175 8.08102L41.4088 7.41161L41.2972 7.37265C40.7789 7.90097 39.4985 8.58039 37.456 9.41091L34.9759 3.78809L45.0368 -0.646989L50.9499 1.41808L43.0792 23.955L49.104 26.059ZM120.109 75.0779L116.368 85.7885C116.199 86.272 115.877 86.6287 115.4 86.8586C114.923 87.0885 114.443 87.119 113.96 86.9502L46.126 63.2603C45.6426 63.0915 45.2859 62.7687 45.056 62.292C44.8261 61.8153 44.7955 61.3353 44.9644 60.8518L48.7049 50.1412C48.8867 49.6205 49.2034 49.2513 49.655 49.0335C50.1066 48.8157 50.5927 48.7977 51.1134 48.9795L118.947 72.6694C119.431 72.8383 119.787 73.161 120.017 73.6377C120.247 74.1144 120.278 74.5945 120.109 75.0779ZM130.084 46.5164L126.343 57.2269C126.174 57.7104 125.851 58.0671 125.375 58.297C124.898 58.5269 124.418 58.5575 123.934 58.3886L56.1007 34.6987C55.6173 34.5299 55.2606 34.2071 55.0307 33.7304C54.8008 33.2538 54.7702 32.7737 54.9391 32.2902L58.6796 21.5796C58.8484 21.0962 59.1712 20.7395 59.6479 20.5096C60.1246 20.2796 60.6046 20.2491 61.0881 20.4179L128.922 44.1078C129.405 44.2767 129.762 44.5994 129.992 45.0761C130.222 45.5528 130.252 46.0329 130.084 46.5164Z" fill="#136FB3"/>
</g>
<defs>
<filter id="filter0_d" x="-0.836967" y="-0.64699" width="135.028" height="124.266" filterUnits="userSpaceOnUse" color-interpolation-filters="sRGB">
<feFlood flood-opacity="0" result="BackgroundImageFix"/>
<feColorMatrix in="SourceAlpha" type="matrix" values="0 0 0 0 0 0 0 0 0 0 0 0 0 0 0 0 0 0 127 0" result="hardAlpha"/>
<feOffset dy="4"/>
<feGaussianBlur stdDeviation="2"/>
<feComposite in2="hardAlpha" operator="out"/>
<feColorMatrix type="matrix" values="0 0 0 0 0 0 0 0 0 0 0 0 0 0 0 0 0 0 0.25 0"/>
<feBlend mode="normal" in2="BackgroundImageFix" result="effect1_dropShadow"/>
<feBlend mode="normal" in="SourceGraphic" in2="effect1_dropShadow" result="shape"/>
</filter>
</defs>
</svg>
