<svg width="128" height="90" viewBox="0 0 128 90" fill="none" xmlns="http://www.w3.org/2000/svg">
<g filter="url(#filter0_d)">
<path d="M120.864 64.9993C123.257 66.5432 123.945 69.7346 122.401 72.1274L109.223 92.5487C106.75 96.3809 100.822 95.3474 99.8497 90.8403L98.0387 82.4433L85.6929 85.1059C85.3474 85.1804 84.9901 85.1831 84.6435 85.1137C84.2968 85.0444 83.9681 84.9045 83.6778 84.7027L65.436 72.0223L74.0484 57.6057L87.6946 67.0916L94.4151 65.6421L92.6042 57.2456C91.6332 52.7433 96.6033 49.3504 100.44 51.8256L120.864 64.9993ZM9.04257 48.8893L26.6838 45.0846L40.33 54.5705L48.9425 40.1539L30.7006 27.4734C30.4103 27.2717 30.0816 27.1317 29.735 27.0624C29.3883 26.993 29.0311 26.9957 28.6855 27.0702L5.41902 32.0882C4.02725 32.3883 3.14221 33.7601 3.44237 35.1519L5.97886 46.9127C6.27903 48.3045 7.6508 49.1895 9.04257 48.8893ZM87.168 32.0398L88.979 40.437C89.9511 44.944 95.8797 45.9774 98.3522 42.1454L111.531 21.7241C113.074 19.3311 112.386 16.1397 109.993 14.596L89.5694 1.42236C85.7326 -1.05306 80.7625 2.33998 81.7335 6.84206L83.5444 15.2387L71.1987 17.9013C70.8532 17.9759 70.5266 18.1207 70.2394 18.3268C69.9521 18.5328 69.7103 18.7958 69.5289 19.0992L33.9309 78.6869L16.2897 82.4917C14.8979 82.7918 14.0129 84.1636 14.313 85.5554L16.8495 97.3162C17.1497 98.708 18.5215 99.593 19.9132 99.2928L43.1797 94.2749C43.8782 94.1243 44.4829 93.6903 44.8495 93.0769L80.4475 33.4892L87.168 32.0398Z" fill="#22AB1F"/>
</g>
<defs>
<filter id="filter0_d" x="-0.616096" y="0.587616" width="127.841" height="106.764" filterUnits="userSpaceOnUse" color-interpolation-filters="sRGB">
<feFlood flood-opacity="0" result="BackgroundImageFix"/>
<feColorMatrix in="SourceAlpha" type="matrix" values="0 0 0 0 0 0 0 0 0 0 0 0 0 0 0 0 0 0 127 0" result="hardAlpha"/>
<feOffset dy="4"/>
<feGaussianBlur stdDeviation="2"/>
<feComposite in2="hardAlpha" operator="out"/>
<feColorMatrix type="matrix" values="0 0 0 0 0 0 0 0 0 0 0 0 0 0 0 0 0 0 0.25 0"/>
<feBlend mode="normal" in2="BackgroundImageFix" result="effect1_dropShadow"/>
<feBlend mode="normal" in="SourceGraphic" in2="effect1_dropShadow" result="shape"/>
</filter>
</defs>
</svg>
